<?xml version="1.0" standalone="no"?>
<!DOCTYPE svg PUBLIC "-//W3C//DTD SVG 20010904//EN"
 "http://www.w3.org/TR/2001/REC-SVG-20010904/DTD/svg10.dtd">
<svg version="1.0" xmlns="http://www.w3.org/2000/svg"
 width="405.000000pt" height="122.000000pt" viewBox="0 0 405.000000 122.000000"
 preserveAspectRatio="xMidYMid meet">

<g transform="translate(0.000000,122.000000) scale(0.100000,-0.100000)"
fill="#000000" stroke="none">
<path d="M2204 966 c-52 -23 -110 -83 -134 -138 -40 -92 -29 -135 88 -355 55
-103 108 -205 118 -226 10 -20 20 -37 23 -37 3 0 43 71 89 158 45 86 100 190
122 231 34 64 40 83 40 135 0 38 -7 76 -19 101 -23 50 -84 109 -133 130 -46
19 -152 19 -194 1z m148 -46 c77 -22 137 -102 138 -185 0 -24 -12 -66 -31
-105 -55 -118 -152 -289 -160 -285 -10 7 -122 208 -159 287 -35 73 -38 125
-11 183 21 47 70 92 109 101 15 3 32 7 37 9 19 6 40 5 77 -5z"/>
<path d="M2243 841 c-40 -25 -53 -49 -53 -100 0 -31 7 -49 29 -73 26 -29 35
-33 81 -33 46 0 55 4 81 33 86 96 -29 241 -138 173z"/>
<path d="M236 914 c-5 -13 80 -139 197 -292 7 -8 -24 -56 -106 -165 -90 -121
-113 -157 -105 -170 5 -10 21 -17 37 -17 24 0 41 18 127 135 54 74 102 135
106 135 3 0 51 -61 105 -135 89 -122 101 -134 129 -135 33 0 51 21 37 43 -4 7
-51 72 -105 145 -55 73 -101 139 -104 147 -4 9 35 70 95 152 56 75 100 144 99
152 -2 10 -16 17 -34 19 -28 3 -36 -5 -123 -123 -51 -69 -96 -123 -101 -120
-4 3 -48 59 -96 125 -80 110 -90 120 -120 120 -20 0 -34 -6 -38 -16z"/>
<path d="M890 891 l0 -41 150 0 c163 0 197 -7 239 -54 37 -39 41 -128 9 -176
-36 -54 -93 -69 -260 -70 l-138 0 0 -140 0 -140 40 0 40 0 0 105 0 105 108 0
c123 0 185 15 239 56 53 40 77 102 71 186 -7 89 -38 137 -117 175 -53 27 -65
28 -218 31 l-163 4 0 -41z"/>
<path d="M1550 600 l0 -330 220 0 220 0 0 40 0 40 -180 0 -180 0 0 290 0 290
-40 0 -40 0 0 -330z"/>
<path d="M2750 891 l0 -41 155 0 c174 0 220 -13 249 -68 30 -59 24 -132 -14
-176 -40 -45 -92 -56 -260 -56 l-130 0 0 -140 0 -140 40 0 40 0 0 105 0 106
107 -3 107 -3 71 -100 c58 -82 76 -101 99 -103 25 -3 45 10 46 29 0 3 -29 47
-65 97 -36 50 -65 94 -65 99 0 5 15 16 33 26 111 60 123 265 20 347 -59 47
-90 53 -265 58 l-168 4 0 -41z"/>
<path d="M3430 890 l0 -40 215 0 215 0 0 40 0 40 -215 0 -215 0 0 -40z"/>
<path d="M3430 605 l0 -35 215 0 215 0 0 35 0 35 -215 0 -215 0 0 -35z"/>
<path d="M3430 310 l0 -40 215 0 215 0 0 40 0 40 -215 0 -215 0 0 -40z"/>
</g>
</svg>
